<svg viewBox="0 0 18271 6255" xmlns="http://www.w3.org/2000/svg" fill-rule="evenodd" clip-rule="evenodd" stroke-linecap="square" stroke-linejoin="round" stroke-miterlimit="1.5"><path d="M2441.36 3079.07c-1.629-115.882 60.024-192.028 184.972-228.452h1576.52c128.212 5.796 203.345 36.834 225.392 93.119 43.281 115.055 4.495 216.865-116.367 305.43l-937.091 659.275 884.416 4.97c123.312 24.005 187.011 88.565 191.09 193.687-8.164 136.575-64.514 213.137-169.043 229.688l-1663.49 1.242c-87.381-15.724-146.181-77.805-176.398-186.232-11.428-97.672 35.527-187.07 140.871-268.186l932.191-626.995h-870.942c-114.328-20.693-181.702-79.874-202.12-177.546zm2054.25 555c56.349-496.632 499.374-769.776 1329.08-819.439 717.007 32.281 1129 206.926 1235.98 523.943 59.614 230.11-119.228 376.408-536.531 438.899-417.297 62.491-734.97 84.011-953.013 64.56-218.043-19.451-421.382-47.383-610.029-83.806 111.064 165.544 417.708 259.079 919.942 280.599 418.933-33.939 735.791-123.33 950.564-268.181 100.45-30.627 167.003-12.002 199.67 55.869 38.381 69.53 21.233 146.919-51.45 232.179-241.726 191.202-604.719 301.703-1088.99 331.498-860.732-1.652-1325.81-253.693-1395.22-756.121zm2124.07-255.762c-119.234-99.331-373.208-166.376-761.923-201.135-432.001 25.658-715.783 94.356-851.344 206.099 82.476 86.913 374.427 126.642 875.841 119.193 483.452-28.969 729.256-70.356 737.426-124.157zm2252.7-530.148c135.561.826 209.463 51.731 221.712 152.715 10.619 113.396-41.645 187.89-156.794 223.482-456.499 72.841-810.103 210.242-1060.81 412.204v494.147c-36.752 137.401-124.538 205.273-263.369 203.62-121.678-8.281-202.524-75.326-242.54-201.135v-677.906c3.27-42.214-59.614-97.667-188.641-166.37-56.35-55.453-70.028-123.952-41.036-205.478 28.987-81.533 100.65-119.814 214.978-114.85 114.328 4.97 251.935 83.191 412.808 234.658 272.758-188.717 640.656-307.083 1103.69-355.087zm276.86-386.15c24.503-121.678 109.025-189.549 253.564-203.62 129.033 11.586 208.655 77.389 238.872 197.408v166.376h170.267c108.615 20.693 164.144 98.082 166.593 232.173-2.449 105.947-60.838 170.508-175.167 193.686h-156.794v672.936c.815 124.983 60.839 196.998 180.067 216.033 119.228 19.035 170.678 100.984 154.344 245.834-39.201 149.814-209.873 186.648-512.033 110.501-227.842-106.78-334.821-292.185-320.938-556.228l1.225-1275.1zM10025 3634.07c56.344-496.632 499.369-769.776 1329.08-819.439 717.008 32.281 1129 206.926 1235.98 523.943 59.614 230.11-119.233 376.408-536.53 438.899-417.303 62.491-734.977 84.011-953.02 64.56-218.037-19.451-421.382-47.383-610.022-83.806 111.058 165.544 417.707 259.079 919.936 280.599 418.938-33.939 735.791-123.33 950.569-268.181 100.445-30.627 167.004-12.002 199.665 55.869 38.381 69.53 21.233 146.919-51.444 232.179-241.726 191.202-604.725 301.703-1088.99 331.498-860.739-1.652-1325.81-253.693-1395.22-756.121zm2124.07-255.762c-119.228-99.331-373.202-166.376-761.923-201.135-432.002 25.658-715.783 94.356-851.344 206.099 82.482 86.913 374.427 126.642 875.841 119.193 483.451-28.969 729.262-70.356 737.426-124.157zm513.33 206.122c74.312-431.239 490.795-685.348 1249.45-762.327 443.43-13.245 831.336 80.29 1163.71 280.593 104.53 61.255 139.646 151.062 105.344 269.423-85.746 93.535-210.283 100.983-373.612 22.352-220.493-144.024-542.45-206.515-965.877-187.48-423.422 19.035-673.112 149.404-749.059 391.094-23.683 240.87 276.432 384.478 900.344 430.83 391.985-15.724 683.116-101.394 873.391-257.005 125.763-57.111 222.943-60.838 291.541-11.176 81.661 62.081 80.032 154.784-4.899 278.114-244.99 221.829-647.185 341.022-1206.58 357.572-852.568-39.729-1280.49-310.394-1283.75-811.99zm2617.7 559.92l1.225-1667.44c15.519-117.534 95.955-183.753 241.321-198.65 162.508 2.479 248.255 66.629 257.239 192.444l2.45 484.213c193.54-120.019 426.281-179.199 698.224-177.546 625.541 34.765 1023.66 223.898 1194.33 567.404l-2.45 777.225c-18.783 142.365-107.794 216.865-267.038 223.482-144.545-9.928-227.431-81.527-248.664-214.791l2.449-682.869c-200.08-158.922-436.086-236.932-708.023-234.037-271.943 2.901-498.15 80.085-678.626 231.558v689.076c-26.953 138.227-109.839 208.584-248.665 211.063-129.032-9.102-210.284-76.147-243.771-201.136z" fill-rule="nonzero"/><path d="M18150.2 2018.6c0-298.515-242.353-540.868-540.862-540.868h-7923.39c-298.509 0-540.862 242.353-540.862 540.868v2396.39c0 298.515 242.353 540.868 540.862 540.868h7923.39c298.509 0 540.862-242.353 540.862-540.868V2018.6z"/><path d="M9422.51 2356.93c24.497-121.671 109.019-189.548 253.564-203.62 129.027 11.593 208.649 77.395 238.866 197.414v166.37h170.268c108.614 20.694 164.143 98.083 166.593 232.173-2.45 105.954-60.839 170.514-175.167 193.687H9919.84v672.936c.82 124.988 60.838 196.997 180.072 216.039 119.228 19.035 170.672 100.977 154.344 245.828-39.201 149.82-209.879 186.653-512.033 110.501-227.842-106.774-334.821-292.185-320.938-556.228l1.225-1275.1zm875.89 1172c56.349-496.632 499.374-769.782 1329.08-819.444 717.008 32.28 1129 206.931 1235.98 523.948 59.614 230.104-119.228 376.402-536.531 438.899-417.297 62.491-734.97 84.012-953.013 64.56-218.043-19.451-421.382-47.388-610.028-83.806 111.064 165.544 417.707 259.073 919.942 280.593 418.932-33.933 735.79-123.33 950.563-268.18 100.451-30.622 167.003-12.003 199.67 55.874 38.381 69.525 21.233 146.919-51.45 232.173-241.725 191.202-604.718 301.703-1088.98 331.504-860.733-1.658-1325.81-253.698-1395.22-756.121zm2124.07-255.767c-119.233-99.326-373.208-166.371-761.923-201.136-432.001 25.658-715.782 94.362-851.344 206.1 82.476 86.912 374.427 126.641 875.841 119.192 483.452-28.969 729.257-70.356 737.426-124.156zm513.23 206.127c74.312-431.245 490.801-685.354 1249.45-762.333 443.436-13.239 831.336 80.29 1163.71 280.599 104.529 61.249 139.646 151.057 105.349 269.423-85.746 93.529-210.283 100.978-373.612 22.346-220.493-144.024-542.45-206.515-965.877-187.48-423.428 19.041-673.112 149.404-749.059 391.1-23.683 240.865 276.432 384.472 900.338 430.83 391.985-15.73 683.122-101.4 873.397-257.011 125.763-57.111 222.943-60.838 291.535-11.17 81.667 62.076 80.032 154.778-4.899 278.108-244.99 221.829-647.185 341.022-1206.58 357.578-852.568-39.729-1280.49-310.394-1283.76-811.99zm2617.8 559.98l1.225-1667.44c15.518-117.534 95.955-183.753 241.315-198.65 162.514 2.485 248.26 66.629 257.239 192.444l2.455 484.213c193.54-120.019 426.282-179.199 698.225-177.541 625.541 34.76 1023.65 223.898 1194.33 567.399l-2.449 777.231c-18.783 142.365-107.794 216.859-267.044 223.481-144.539-9.933-227.432-81.532-248.664-214.796l2.449-682.864c-200.074-158.921-436.08-236.937-708.023-234.036-271.937 2.895-498.15 80.079-678.626 231.552v689.075c-26.947 138.228-109.834 208.585-248.665 211.069-129.027-9.107-210.284-76.152-243.765-201.135z" fill="#fff" fill-rule="nonzero"/><path d="M2135.32 2119.75l-691.279 2130.14m404.539-2550.05L747.54 4798.6m796.59-3651.41L131.34 5333.44" fill="none" stroke="#000" stroke-width="97.7"/></svg>