<svg viewBox="0 0 18271 6255" xmlns="http://www.w3.org/2000/svg" fill-rule="evenodd" clip-rule="evenodd" stroke-linejoin="round" stroke-miterlimit="2"><path d="M2437.31 2965.88c-1.629-115.86 60.013-191.992 184.936-228.408h1576.22c128.187 5.795 203.306 36.826 225.349 93.101 43.272 115.033 4.494 216.824-116.345 305.372l-936.912 659.149 884.247 4.969c123.289 24.001 186.975 88.549 191.054 193.65-8.163 136.549-64.502 213.097-169.011 229.644l-1663.17 1.242c-87.365-15.72-146.153-77.79-176.364-186.196-11.426-97.654 35.52-187.034 140.844-268.135l932.013-626.876h-870.776c-114.306-20.689-181.667-79.858-202.081-177.512zm2053.86 554.89c56.338-496.538 499.279-769.63 1328.82-819.283 716.871 32.274 1128.79 206.886 1235.75 523.842 59.603 230.066-119.205 376.336-536.429 438.816-417.217 62.479-734.83 83.995-952.832 64.548-218.001-19.448-421.301-47.374-609.912-83.791 111.043 165.513 417.628 259.03 919.767 280.546 418.853-33.932 735.651-123.307 950.383-268.129 100.431-30.622 166.971-12.001 199.632 55.858 38.374 69.517 21.229 146.891-51.44 232.135-241.68 191.165-604.604 301.645-1088.78 331.435-860.569-1.653-1325.56-253.645-1394.96-755.977zm2123.67-255.714c-119.211-99.312-373.137-166.344-761.778-201.097-431.919 25.653-715.646 94.338-851.182 206.06 82.46 86.896 374.356 126.618 875.675 119.17 483.359-28.963 729.117-70.343 737.285-124.133zM8867.1 2735.01c135.535.827 209.423 51.722 221.669 152.687 10.618 113.374-41.637 187.854-156.764 223.439-456.412 72.827-809.949 210.202-1060.61 412.126v494.053c-36.745 137.375-124.514 205.234-263.319 203.581-121.654-8.279-202.486-75.312-242.494-201.097v-677.777c3.269-42.205-59.603-97.648-188.605-166.338-56.339-55.443-70.015-123.928-41.028-205.439 28.981-81.517 100.631-119.791 214.937-114.828 114.307 4.969 251.887 83.175 412.73 234.613 272.705-188.681 640.534-307.025 1103.48-355.02zm276.8-386.08c24.499-121.654 109.004-189.513 253.516-203.582 129.008 11.585 208.615 77.375 238.826 197.371v166.344h170.235c108.594 20.69 164.112 98.065 166.562 232.129-2.45 105.928-60.827 170.476-175.134 193.65h-156.764v672.808c.814 124.959 60.827 196.96 180.032 215.992 119.205 19.031 170.645 100.964 154.315 245.787-39.194 149.786-209.834 186.612-511.936 110.48-227.799-106.759-334.758-292.13-320.877-556.122l1.225-1274.86zm875.6 1171.84c56.333-496.538 499.274-769.63 1328.82-819.283 716.871 32.274 1128.79 206.886 1235.75 523.842 59.602 230.066-119.211 376.336-536.429 438.816-417.223 62.479-734.836 83.995-952.838 64.548-217.995-19.448-421.302-47.374-609.906-83.791 111.037 165.513 417.628 259.03 919.761 280.546 418.858-33.932 735.651-123.307 950.389-268.129 100.425-30.622 166.971-12.001 199.626 55.858 38.374 69.517 21.229 146.891-51.434 232.135-241.68 191.165-604.61 301.645-1088.78 331.435-860.575-1.653-1325.56-253.645-1394.96-755.977zm2123.67-255.714c-119.205-99.312-373.131-166.344-761.778-201.097-431.919 25.653-715.646 94.338-851.182 206.06 82.466 86.896 374.356 126.618 875.675 119.17 483.359-28.963 729.123-70.343 737.285-124.133zm513.23 206.084c74.298-431.158 490.701-685.218 1249.21-762.183 443.346-13.242 831.178 80.275 1163.49 280.54 104.51 61.243 139.62 151.034 105.324 269.372-85.73 93.517-210.243 100.964-373.541 22.348-220.451-143.997-542.347-206.476-965.694-187.445-423.34 19.032-672.983 149.376-748.916 391.02-23.678 240.825 276.379 384.405 900.173 430.748 391.911-15.721 682.986-101.375 873.225-256.956 125.739-57.1 222.9-60.827 291.485-11.174 81.646 62.07 80.017 154.755-4.898 278.061-244.944 221.787-647.062 340.957-1206.35 357.504-852.406-39.721-1280.24-310.335-1283.51-811.835zm2617.2 559.81l1.225-1667.12c15.516-117.512 95.937-183.718 241.275-198.613 162.477 2.478 248.207 66.616 257.19 192.407l2.449 484.122c193.503-119.997 426.2-179.165 698.092-177.513 625.422 34.758 1023.46 223.855 1194.1 567.296l-2.449 777.078c-18.78 142.338-107.773 216.823-266.987 223.439-144.518-9.926-227.388-81.511-248.617-214.75l2.449-682.74c-200.042-158.891-436.003-236.886-707.888-233.992-271.892 2.901-498.056 80.07-678.498 231.514v688.945c-26.948 138.201-109.818 208.544-248.617 211.023-129.008-9.1-210.244-76.132-243.725-201.097z" fill="#fff" fill-rule="nonzero"/><path d="M18143.1 1905.6c0-298.458-242.307-540.764-540.759-540.764h-7921.89c-298.453 0-540.759 242.306-540.759 540.764v2395.93c0 298.458 242.306 540.765 540.759 540.765h7921.89c298.452 0 540.759-242.307 540.759-540.765V1905.6z" fill="#fff" stroke="#fff" stroke-width="4.17"/><path d="M9417.13 2243.87c24.493-121.649 108.998-189.513 253.516-203.582 129.002 11.59 208.609 77.38 238.82 197.376v166.339h170.236c108.593 20.69 164.112 98.064 166.561 232.129-2.449 105.933-60.827 170.481-175.134 193.65h-156.764v672.807c.82 124.965 60.827 196.961 180.038 215.998 119.205 19.032 170.64 100.959 154.315 245.782-39.194 149.791-209.839 186.618-511.936 110.48-227.799-106.754-334.757-292.13-320.876-556.123l1.224-1274.86zm875.67 1171.78c56.339-496.538 499.28-769.636 1328.82-819.289 716.871 32.274 1128.79 206.892 1235.75 523.848 59.602 230.061-119.205 376.331-536.429 438.816-417.218 62.48-734.83 83.996-952.832 64.548-218.002-19.448-421.302-47.38-609.912-83.79 111.042 165.512 417.627 259.023 919.767 280.539 418.852-33.926 735.65-123.306 950.382-268.129 100.432-30.616 166.972-12 199.633 55.864 38.373 69.511 21.228 146.891-51.441 232.129-241.679 191.165-604.603 301.645-1088.78 331.441-860.569-1.658-1325.56-253.651-1394.96-755.977zm2123.67-255.719c-119.211-99.307-373.137-166.339-761.778-201.097-431.92 25.652-715.647 94.343-851.182 206.06 82.46 86.896 374.355 126.617 875.674 119.169 483.36-28.963 729.118-70.342 737.286-124.132zm513.13 206.089c74.298-431.163 490.707-685.224 1249.22-762.188 443.351-13.237 831.177 80.274 1163.49 280.545 104.51 61.238 139.62 151.028 105.33 269.372-85.73 93.511-210.243 100.959-373.541 22.342-220.451-143.996-542.347-206.476-965.694-187.444-423.346 19.037-672.983 149.375-748.916 391.025-23.678 240.819 276.379 384.399 900.167 430.748 391.911-15.727 682.992-101.381 873.231-256.961 125.739-57.101 222.9-60.828 291.48-11.169 81.651 62.064 80.016 154.749-4.899 278.056-244.943 221.787-647.061 340.956-1206.35 357.509-852.406-39.721-1280.24-310.335-1283.51-811.835zm2617.3 559.87l1.224-1667.13c15.516-117.511 95.937-183.717 241.27-198.612 162.483 2.484 248.213 66.616 257.19 192.407l2.455 484.121c193.503-119.996 426.2-179.165 698.091-177.506 625.423 34.752 1023.46 223.855 1194.1 567.29l-2.449 777.083c-18.78 142.338-107.774 216.818-266.993 223.439-144.512-9.931-227.388-81.517-248.617-214.755l2.449-682.734c-200.037-158.891-435.997-236.892-707.889-233.992-271.885 2.895-498.055 80.064-678.497 231.508v688.945c-26.942 138.201-109.812 208.544-248.617 211.028-129.003-9.105-210.244-76.138-243.719-201.097z" fill-rule="nonzero"/><path d="M2131.32 2006.74l-691.148 2129.73m404.468-2549.56L743.81 4685.08m796.43-3650.72L127.71 5219.81" fill="none" stroke="#fff" stroke-width="97.68" stroke-linecap="square" stroke-miterlimit="1.5"/></svg>